<?xml version="1.0" encoding="UTF-8" standalone="no"?>
<!-- Created with Inkscape (http://www.inkscape.org/) -->

<svg
   width="143.03877mm"
   height="112.3401mm"
   viewBox="0 0 143.03877 112.3401"
   version="1.1"
   id="svg1"
   xmlns="http://www.w3.org/2000/svg"
   xmlns:svg="http://www.w3.org/2000/svg">
  <defs
     id="defs1" />
  <g
     id="layer1"
     transform="translate(-42.89129,-35.84741)">
    <path
       d="m 143.22365,76.736442 -4.7625,0.79375 v 0.264584 c 5.96623,1.340728 12.31829,3.951858 18.52084,3.854624 7.45688,-0.116885 16.28087,-4.809119 23.10855,1.115341 3.16851,2.749346 -3.63197,4.684985 -5.38147,5.121796 -7.13563,1.781593 -15.73009,2.332061 -23.01875,1.285322 v 3.439583 c 9.42258,1.248164 21.57838,0.613754 30.1625,-3.704167 -2.1e-4,1.84123 0.3139,4.115512 -0.71969,5.744255 -1.27717,2.012524 -3.98733,2.762639 -6.15948,3.320794 -5.42406,1.393745 -11.34816,1.808723 -16.93333,1.779719 -4.10258,-0.0213 -8.05836,-1.360738 -10.31875,2.913567 11.60714,0.12305 23.15057,1.3198 34.13125,-3.439585 -3e-5,2.017865 0.43167,4.717475 -0.73856,6.486085 -1.78541,2.69838 -6.12539,3.36438 -9.05102,3.93256 -8.50255,1.65127 -17.39244,1.43084 -25.92917,0.16469 l 0.79375,3.70416 c 11.29874,1.18288 24.50886,1.88535 34.925,-3.43958 0,2.09414 0.47133,4.93838 -0.71969,6.78198 -1.69299,2.62055 -5.72183,3.24842 -8.54073,3.78968 -7.8318,1.50382 -15.65158,1.09895 -23.54791,0.54084 1.19684,4.49141 4.95244,3.96181 8.99583,3.9682 7.94726,0.0126 16.62123,-0.22043 23.8125,-3.9682 -0.0124,6.48368 -3.87136,8.12047 -9.78958,9.19177 -7.23514,1.30966 -14.95335,1.40917 -22.225,0.33323 l -1.05834,3.43958 c 8.3053,1.00052 17.46909,1.16198 25.66459,-0.69172 3.38005,-0.7645 7.26553,-1.72757 9.45943,-4.6492 2.16575,-2.88412 1.38848,-7.40697 1.38848,-10.79866 V 92.876025 c 0,-3.295245 0.88924,-8.176762 -1.03507,-11.046936 -2.63361,-3.928168 -9.17903,-4.905417 -13.51701,-5.35723 2.35368,-2.58957 4.35562,-5.318895 5.31651,-8.73125 0.65865,-2.339004 0.81,-4.741296 0.46662,-7.14375 -2.90743,-20.342429 -35.04255,-21.678117 -39.17722,-1.322917 -0.55812,2.747701 -0.46194,5.487779 0.23873,8.202084 0.94607,3.664958 3.07313,6.552813 5.63869,9.260416 m 15.34584,-5.55625 c -0.34629,3.122695 -2.95262,3.626573 -3.43959,0.264584 -1.45989,-0.307105 -4.77411,-0.966108 -4.44727,-3.098615 0.5267,-3.436678 6.8041,1.434634 7.469,-1.723684 0.2807,-1.33327 -2.16752,-1.943745 -3.02318,-2.272794 -3.55841,-1.368425 -6.83959,-5.621766 -2.58609,-8.575768 0.78679,-0.546431 1.66883,-0.784045 2.58754,-0.997889 0.45054,-4.518102 2.46028,-1.829361 4.44257,-0.338738 0.99716,0.749855 2.8924,1.254847 3.00252,2.744599 0.2709,3.665683 -6.79945,-0.630195 -6.79945,1.986249 0,1.365289 2.64348,1.91122 3.58436,2.29159 3.56693,1.442014 5.9748,5.912559 2.03772,8.639606 -0.85765,0.594053 -1.82579,0.854517 -2.82813,1.08086"
       style="display:inline;fill:#eabe3f;fill-opacity:1;stroke:#2a3d2a;stroke-width:0.865;stroke-linecap:round;stroke-linejoin:bevel;stroke-dasharray:none;stroke-opacity:1;paint-order:fill markers stroke"
       id="path1" />
    <path
       d="m 52.309558,102.52368 c -2.49591,0.47827 -6.95173,0.81591 -8.52133,3.06675 -1.62403,2.3289 -0.23777,6.58673 0.31529,9.10408 1.83895,8.37033 4.8887,16.80011 9.9184,23.81234 2.0527,2.86181 6.56009,8.00833 10.21825,4.26844 1.83356,-1.87456 1.02097,-4.466 0.33226,-6.64953 -1.52381,-4.83123 -3.06583,-9.64666 -4.33945,-14.55208 -4.94078,-19.02959 -7.96863,-38.414129 -10.06758,-57.943749 -0.6108,-5.68318 -3.82329,-16.58545 3.46805,-18.99948 1.44899,-0.47974 2.98473,-0.54277 4.49696,-0.57969 0.008,5.37112 0.49874,10.78366 0.89667,16.13954 0.11084,1.49195 -0.0962,4.524 1.88042,4.89724 3.18662,0.60173 5.47233,-3.91818 8.59999,-3.99465 2.44457,-0.0598 7.2408,4.92456 9.21174,2.05004 1.12755,-1.64446 0.51908,-4.53504 0.39891,-6.39217 -0.31877,-4.92579 -0.72454,-9.88331 -0.8794,-14.81666 10.45816,-0.0456 21.05054,-1.17575 31.485422,-1.89587 3.8345,-0.26461 9.62745,-1.72793 12.9037,0.86407 3.11002,2.46049 3.04178,7.22446 3.58318,10.82138 1.35707,9.01628 3.02953,17.9793 4.4152,26.9875 l 3.43959,-1.05833 c -1.61835,-8.88614 -3.0203,-17.7964 -4.39561,-26.72292 -0.62357,-4.04748 -0.57012,-8.92127 -3.68794,-11.97517 -4.6531,-4.55772 -12.80017,-2.62222 -18.63937,-2.24575 -14.451172,0.93171 -28.728462,1.217 -43.127082,1.7544 -5.00415,0.18676 -14.2571,2.19809 -17.20466,6.66775 -2.95404,4.47949 -1.09907,11.38641 -0.61315,16.3821 1.33782,13.75367 3.21256,27.45524 5.91154,41.010419 m 54.239602,4.23333 h -0.26458 c -2.31998,-2.36282 -4.99769,-4.53961 -7.672922,-6.49001 -7.2385,-5.277289 -18.31104,-0.544329 -18.20804,8.87126 0.0527,4.81597 3.40582,7.68088 6.83096,10.55705 4.46082,3.74583 8.93119,7.50467 13.493752,11.12584 2.67274,2.12128 5.82435,3.55091 9.26041,2.47998 4.06601,-1.26727 7.18656,-5.37635 10.01012,-8.35727 5.56461,-5.87474 11.25717,-11.67012 16.97738,-17.3931 1.3248,5.13273 2.80284,10.22667 4.17904,15.34584 0.69488,2.58477 1.73818,5.57742 0.66114,8.19572 -2.44469,5.94316 -14.27173,5.28471 -19.65684,6.05399 -12.87442,1.83913 -25.750522,3.67303 -38.629172,5.48035 -5.59184,0.78474 -12.96935,0.56154 -17.72708,3.81785 v 0.52917 c 5.14426,2.51785 13.07904,-0.0409 18.52083,-0.87474 14.17476,-2.17184 28.397602,-4.08329 42.597922,-6.0812 5.81506,-0.81813 14.43201,-0.42559 17.68866,-6.28623 4.62346,-8.3203 -3.84511,-19.20325 -4.18708,-27.76825 -0.10904,-2.73095 2.77794,-4.77669 4.40846,-6.614579 2.30177,-2.59446 3.40606,-5.80047 2.77312,-9.26042 -1.25224,-6.84552 -9.40556,-10.70929 -15.65608,-7.94772 -3.64035,1.60835 -6.50047,5.45235 -9.26042,8.21231 -5.39236,5.39235 -11.21095,10.581379 -16.13958,16.404159"
       style="fill:#2a3d2a;fill-opacity:1;stroke:#162016;stroke-width:0.264583;stroke-opacity:1"
       id="path1-6" />
  </g>
</svg>
