<svg xmlns="http://www.w3.org/2000/svg" viewBox="0 0 143 112">
  <path d="m143.2,76.7v0.3c6,1.3,12.3,4,18.5,3.9,7.5-0.1,16.3-4.8,23.1,1.1,3.2,2.7-3.6,4.7-5.4,5.1-7.1,1.8-15.7,2.3-23,1.3v3.4c9.4,1.2,21.6,0.6,30.2-3.7v5.7c-1.3,2-4,2.8-6.2,3.3-5.4,1.4-11.3,1.8-16.9,1.8-4.1,0-8.1-1.4-10.3,2.9,11.6,0.1,23.2,1.3,34.1-3.4v6.5c-1.8,2.7-6.1,3.4-9.1,3.9-8.5,1.7-17.4,1.4-25.9,0.2l0.8,3.7c11.3,1.2,24.5,1.9,34.9-3.4v6.8c-1.7,2.6-5.7,3.2-8.5,3.8-7.8,1.5-15.7,1.1-23.5,0.5,1.2,4.5,5,4,9,4,7.9,0,16.6-0.2,23.8-4v9.2c-3.9,1.3-8,1.4-12.4,0.3l-1.1,3.4c8.3,1,17.5,1.2,25.7-0.7,3.4-0.8,7.3-1.7,9.5-4.6,2.2-2.9,1.4-7.4,1.4-10.8V92.9c0-3.3,0.9-8.2-1-11-2.6-3.9-9.2-4.9-13.5-5.4,2.4-2.6,4.4-5.3,5.3-8.7,0.7-2.3,0.8-4.7,0.5-7.1-2.9-20.3-35-21.7-39.2-1.3-0.6,2.7-0.5,5.5,0.2,8.2,1,3.7,3.1,6.6,5.6,9.3" fill="#eabe3f"/>
  <path d="m52.3,102.5c-2.5,0.5-7,0.8-8.5,3.1-1.6,2.3-0.2,6.6,0.3,9.1,1.8,8.4,4.9,16.8,9.9,23.8,2.1,2.9,6.6,8,10.2,4.3,1.8-1.9,1-4.5,0.3-6.6-1.5-4.8-3.1-9.6-4.3-14.6-4.9-19-8-38.4-10.1-57.9-0.6-5.7-3.8-16.6,3.5-19,1.4-0.5,3-0.5,4.5-0.6,0,5.4,0.5,10.8,0.9,16.1,0.1,1.5-0.1,4.5,1.9,4.9,3.2,0.6,5.5-3.9,8.6-4,2.4-0.1,7.2,4.9,9.2,2.1,1.1-1.6,0.5-4.5,0.4-6.4-0.3-4.9-0.7-9.9-0.9-14.8,10.5,0,21.1-1.2,31.5-1.9,3.8-0.3,9.6-1.7,12.9,0.9,3.1,2.5,3,7.2,3.6,10.8,1.4,9,3,18,4.4,27l3.4-1.1c-1.6-8.9-3-17.8-4.4-26.7-0.6-4-0.6-8.9-3.7-12-4.7-4.6-12.8-2.6-18.6-2.2-14.5,0.9-28.7,1.2-43.1,1.8-5,0.2-14.3,2.2-17.2,6.7-3,4.5-1.1,11.4-0.6,16.4,1.3,13.8,3.2,27.5,5.9,41" fill="#2a3d2a"/>
</svg>